<svg width="25" height="25" viewBox="0 0 25 25" fill="none" xmlns="http://www.w3.org/2000/svg">
<path d="M20.8334 10.073V9.89597C20.8397 8.12403 20.2775 6.39679 19.2294 4.96806C18.1813 3.53934 16.7025 2.48447 15.0105 1.95847H14.948C14.074 1.69204 13.1635 1.56548 12.25 1.58347C10.0749 1.70283 8.02723 2.64779 6.52504 4.22547C5.02286 5.80316 4.17936 7.89463 4.16671 10.073C3.55631 10.2878 3.02761 10.6867 2.65361 11.2147C2.2796 11.7428 2.07874 12.3739 2.07874 13.021C2.07874 13.668 2.2796 14.2992 2.65361 14.8272C3.02761 15.3552 3.55631 15.7542 4.16671 15.9689C4.38126 18.0259 5.35309 19.9297 6.89325 21.3101C8.43342 22.6905 10.4319 23.4488 12.5 23.4376H12.7396C14.7396 23.3408 16.6406 22.5385 18.1051 21.1731C19.5697 19.8077 20.5031 17.9676 20.7396 15.9793C21.3572 15.7767 21.8963 15.3866 22.2817 14.8633C22.6672 14.3399 22.8799 13.7095 22.8902 13.0596C22.9005 12.4097 22.708 11.7728 22.3393 11.2375C21.9706 10.7022 21.4442 10.2951 20.8334 10.073ZM12.6875 21.3543C11.1796 21.3979 9.70682 20.8947 8.54088 19.9374C7.37495 18.9802 6.59459 17.6335 6.3438 16.146H18.6042C18.35 17.5542 17.6271 18.8351 16.553 19.7806C15.4789 20.7261 14.1166 21.2807 12.6875 21.3543ZM19.7917 14.0626H5.20838C4.93211 14.0626 4.66716 13.9529 4.47181 13.7575C4.27646 13.5622 4.16671 13.2972 4.16671 13.021C4.16671 12.7447 4.27646 12.4797 4.47181 12.2844C4.66716 12.089 4.93211 11.9793 5.20838 11.9793H7.29171C7.56798 11.9793 7.83293 11.8696 8.02828 11.6742C8.22363 11.4789 8.33338 11.2139 8.33338 10.9376C8.33338 10.6614 8.22363 10.3964 8.02828 10.2011C7.83293 10.0057 7.56798 9.89597 7.29171 9.89597H6.25005C6.29668 8.81535 6.60553 7.76231 7.14996 6.8277C7.6944 5.8931 8.45805 5.10499 9.37505 4.53138V7.81263C9.37505 8.0889 9.4848 8.35385 9.68015 8.5492C9.8755 8.74455 10.1404 8.8543 10.4167 8.8543C10.693 8.8543 10.9579 8.74455 11.1533 8.5492C11.3486 8.35385 11.4584 8.0889 11.4584 7.81263V3.73972C11.7411 3.69248 12.0263 3.66118 12.3125 3.64597H12.5C12.8491 3.65088 13.1974 3.68222 13.5417 3.73972V7.81263C13.5417 8.0889 13.6515 8.35385 13.8468 8.5492C14.0422 8.74455 14.3071 8.8543 14.5834 8.8543C14.8596 8.8543 15.1246 8.74455 15.32 8.5492C15.5153 8.35385 15.625 8.0889 15.625 7.81263V4.50013C16.0669 4.75599 16.4791 5.05992 16.8542 5.40638C17.4548 5.98961 17.9321 6.68755 18.2578 7.45878C18.5834 8.23 18.7508 9.0588 18.75 9.89597H17.7084C17.4321 9.89597 17.1672 10.0057 16.9718 10.2011C16.7765 10.3964 16.6667 10.6614 16.6667 10.9376C16.6667 11.2139 16.7765 11.4789 16.9718 11.6742C17.1672 11.8696 17.4321 11.9793 17.7084 11.9793H19.7917C20.068 11.9793 20.3329 12.089 20.5283 12.2844C20.7236 12.4797 20.8334 12.7447 20.8334 13.021C20.8334 13.2972 20.7236 13.5622 20.5283 13.7575C20.3329 13.9529 20.068 14.0626 19.7917 14.0626Z" fill="#F2F2F2"/>
</svg>
