<svg width="25" height="25" viewBox="0 0 25 25" fill="none" xmlns="http://www.w3.org/2000/svg">
<path d="M20.25 13.5418C20.0209 13.5418 19.7813 13.4688 19.5521 13.4168C19.088 13.3145 18.632 13.1787 18.1875 13.0105C17.7043 12.8347 17.1731 12.8438 16.6962 13.0361C16.2193 13.2284 15.8303 13.5903 15.6042 14.0522L15.375 14.5209C14.3605 13.9565 13.4282 13.2555 12.6042 12.4376C11.7863 11.6136 11.0853 10.6813 10.5209 9.66675L10.9584 9.37509C11.4202 9.14896 11.7821 8.76001 11.9744 8.2831C12.1667 7.80618 12.1758 7.27499 12 6.79175C11.8347 6.34636 11.6989 5.8905 11.5938 5.42717C11.5417 5.198 11.5 4.95842 11.4688 4.71884C11.3423 3.98511 10.958 3.32065 10.3851 2.84513C9.81215 2.3696 9.08827 2.11426 8.34379 2.12509H5.21879C4.76987 2.12087 4.3253 2.21343 3.91537 2.39647C3.50543 2.57951 3.13974 2.84873 2.8432 3.1858C2.54666 3.52287 2.32623 3.91987 2.19691 4.34979C2.06759 4.77971 2.03242 5.23244 2.09379 5.67717C2.64873 10.0411 4.64174 14.0958 7.75802 17.2007C10.8743 20.3057 14.9362 22.2839 19.3021 22.823H19.698C20.4661 22.8241 21.2078 22.5423 21.7813 22.0313C22.1108 21.7366 22.3741 21.3753 22.5537 20.9713C22.7332 20.5672 22.825 20.1297 22.823 19.6876V16.5626C22.8102 15.839 22.5467 15.1423 22.0775 14.5914C21.6082 14.0405 20.9624 13.6695 20.25 13.5418ZM20.7709 19.7918C20.7707 19.9397 20.739 20.0858 20.6779 20.2205C20.6169 20.3552 20.5278 20.4754 20.4167 20.573C20.3003 20.6735 20.1642 20.7486 20.0171 20.7934C19.87 20.8383 19.7152 20.8519 19.5625 20.8334C15.6614 20.3332 12.0378 18.5485 9.26329 15.7608C6.48879 12.9731 4.7213 9.34106 4.23963 5.43759C4.22305 5.285 4.23758 5.13064 4.28234 4.98383C4.3271 4.83702 4.40116 4.7008 4.50004 4.58342C4.59766 4.47231 4.71782 4.38325 4.85252 4.32219C4.98723 4.26112 5.13339 4.22944 5.28129 4.22925H8.40629C8.64853 4.22386 8.88507 4.30309 9.07519 4.45328C9.26532 4.60348 9.39714 4.81526 9.44796 5.05217C9.48963 5.33689 9.54171 5.61814 9.60421 5.89592C9.72454 6.44503 9.88469 6.98465 10.0834 7.5105L8.62504 8.18759C8.50035 8.2448 8.38819 8.32607 8.295 8.42675C8.20181 8.52742 8.12942 8.64552 8.08199 8.77425C8.03457 8.90298 8.01304 9.03981 8.01864 9.17688C8.02424 9.31395 8.05686 9.44857 8.11463 9.573C9.61379 12.7842 12.1951 15.3655 15.4063 16.8647C15.6599 16.9689 15.9444 16.9689 16.198 16.8647C16.3279 16.8182 16.4473 16.7464 16.5492 16.6534C16.6511 16.5604 16.7335 16.4481 16.7917 16.323L17.4375 14.8647C17.9761 15.0573 18.5257 15.2173 19.0834 15.3438C19.3612 15.4063 19.6424 15.4584 19.9271 15.5001C20.164 15.5509 20.3758 15.6827 20.526 15.8729C20.6762 16.063 20.7554 16.2995 20.75 16.5418L20.7709 19.7918Z" fill="#F2F2F2"/>
</svg>
