<svg width="25" height="25" viewBox="0 0 25 25" fill="none" xmlns="http://www.w3.org/2000/svg">
<path d="M10.5938 10.9895C10.6778 11.1191 10.7897 11.2285 10.9212 11.3095C11.0527 11.3906 11.2006 11.4414 11.3542 11.4583C11.5085 11.4739 11.6643 11.4548 11.8102 11.4026C11.9562 11.3503 12.0887 11.2661 12.198 11.1562L13.375 9.96867L14.7605 12.052C14.8572 12.1914 14.9865 12.3051 15.1372 12.3832C15.2879 12.4613 15.4553 12.5013 15.625 12.4999C15.8298 12.5023 16.0302 12.4403 16.198 12.3228C16.4263 12.1701 16.5851 11.9334 16.6397 11.6641C16.6943 11.3949 16.6404 11.115 16.4896 10.8853L14.4063 7.76033C14.3222 7.6307 14.2104 7.52138 14.0789 7.44031C13.9474 7.35924 13.7995 7.30844 13.6459 7.29158C13.4916 7.27597 13.3358 7.29499 13.1899 7.34725C13.0439 7.39951 12.9114 7.4837 12.8021 7.59367L11.625 8.78117L10.2396 6.69783C10.1711 6.57011 10.0767 6.45809 9.96243 6.36894C9.84815 6.27978 9.71653 6.21546 9.57598 6.18008C9.43542 6.14469 9.28903 6.13903 9.14617 6.16345C9.0033 6.18787 8.8671 6.24184 8.74628 6.3219C8.62547 6.40196 8.52268 6.50636 8.44451 6.62841C8.36634 6.75046 8.3145 6.88748 8.2923 7.0307C8.27011 7.17393 8.27804 7.32022 8.31561 7.4602C8.35317 7.60019 8.41954 7.73079 8.51046 7.84367L10.5938 10.9895ZM21.875 14.5833H20.8334V4.16659H21.875C22.1513 4.16659 22.4163 4.05684 22.6116 3.86149C22.807 3.66614 22.9167 3.40119 22.9167 3.12492C22.9167 2.84865 22.807 2.5837 22.6116 2.38835C22.4163 2.193 22.1513 2.08325 21.875 2.08325H3.12504C2.84877 2.08325 2.58382 2.193 2.38847 2.38835C2.19312 2.5837 2.08337 2.84865 2.08337 3.12492C2.08337 3.40119 2.19312 3.66614 2.38847 3.86149C2.58382 4.05684 2.84877 4.16659 3.12504 4.16659H4.16671V14.5833H3.12504C2.84877 14.5833 2.58382 14.693 2.38847 14.8883C2.19312 15.0837 2.08337 15.3487 2.08337 15.6249C2.08337 15.9012 2.19312 16.1661 2.38847 16.3615C2.58382 16.5568 2.84877 16.6666 3.12504 16.6666H11.4584V17.8645L6.71879 20.9895C6.52435 21.1099 6.37492 21.2909 6.29355 21.5046C6.21218 21.7183 6.20341 21.9529 6.26858 22.1721C6.33374 22.3913 6.46923 22.5829 6.65414 22.7175C6.83904 22.852 7.06309 22.922 7.29171 22.9166C7.4965 22.9189 7.69687 22.857 7.86462 22.7395L11.4584 20.3645V21.8749C11.4584 22.1512 11.5681 22.4161 11.7635 22.6115C11.9588 22.8068 12.2238 22.9166 12.5 22.9166C12.7763 22.9166 13.0413 22.8068 13.2366 22.6115C13.432 22.4161 13.5417 22.1512 13.5417 21.8749V20.3645L17.1355 22.7395C17.3032 22.857 17.5036 22.9189 17.7084 22.9166C17.9309 22.9149 18.1471 22.8419 18.3251 22.7084C18.5032 22.5749 18.6339 22.3879 18.6979 22.1748C18.762 21.9616 18.7561 21.7336 18.6811 21.524C18.6061 21.3145 18.466 21.1345 18.2813 21.0103L13.5417 17.8853V16.6666H21.875C22.1513 16.6666 22.4163 16.5568 22.6116 16.3615C22.807 16.1661 22.9167 15.9012 22.9167 15.6249C22.9167 15.3487 22.807 15.0837 22.6116 14.8883C22.4163 14.693 22.1513 14.5833 21.875 14.5833ZM18.75 14.5833H6.25004V4.16659H18.75V14.5833Z" fill="#F2F2F2"/>
</svg>
