<svg width="25" height="25" viewBox="0 0 25 25" fill="none" xmlns="http://www.w3.org/2000/svg">
<path d="M2.60411 10.9999L11.9791 16.4166C12.1375 16.508 12.3171 16.5561 12.4999 16.5561C12.6828 16.5561 12.8624 16.508 13.0208 16.4166L22.3958 10.9999C22.5536 10.9083 22.6847 10.7769 22.7757 10.6188C22.8668 10.4606 22.9148 10.2814 22.9148 10.0989C22.9148 9.91638 22.8668 9.73709 22.7757 9.57896C22.6847 9.42082 22.5536 9.28939 22.3958 9.19782L13.0208 3.78116C12.8624 3.68973 12.6828 3.6416 12.4999 3.6416C12.3171 3.6416 12.1375 3.68973 11.9791 3.78116L2.60411 9.19782C2.44626 9.28939 2.31523 9.42082 2.22415 9.57896C2.13306 9.73709 2.08512 9.91638 2.08512 10.0989C2.08512 10.2814 2.13306 10.4606 2.22415 10.6188C2.31523 10.7769 2.44626 10.9083 2.60411 10.9999ZM12.4999 5.88533L19.7916 10.052L12.4999 14.2707L5.20828 10.0937L12.4999 5.88533ZM21.3541 13.9999L12.4999 19.1145L3.64578 13.9999C3.52751 13.9306 3.39672 13.8853 3.26092 13.8667C3.12512 13.848 2.98697 13.8563 2.85439 13.8912C2.72181 13.926 2.59741 13.9867 2.48833 14.0697C2.37924 14.1527 2.28761 14.2564 2.21869 14.3749C2.14982 14.4938 2.10515 14.6251 2.08725 14.7614C2.06935 14.8976 2.07857 15.036 2.1144 15.1687C2.15022 15.3013 2.21194 15.4256 2.29598 15.5343C2.38003 15.6429 2.48475 15.7339 2.60411 15.802L11.9791 21.2187C12.1375 21.3101 12.3171 21.3582 12.4999 21.3582C12.6828 21.3582 12.8624 21.3101 13.0208 21.2187L22.3958 15.802C22.5151 15.7339 22.6199 15.6429 22.7039 15.5343C22.788 15.4256 22.8497 15.3013 22.8855 15.1687C22.9213 15.036 22.9305 14.8976 22.9126 14.7614C22.8947 14.6251 22.8501 14.4938 22.7812 14.3749C22.7123 14.2564 22.6206 14.1527 22.5116 14.0697C22.4025 13.9867 22.2781 13.926 22.1455 13.8912C22.0129 13.8563 21.8748 13.848 21.739 13.8667C21.6032 13.8853 21.4724 13.9306 21.3541 13.9999Z" fill="#F2F2F2"/>
</svg>
